<mxfile host="65bd71144e" modified="2021-02-19T17:35:06.536Z" agent="5.0 (Windows NT 10.0; Win64; x64) AppleWebKit/537.36 (KHTML, like Gecko) Code/1.53.2 Chrome/87.0.4280.141 Electron/11.2.1 Safari/537.36" etag="aWbLpFr9TmPlyyRCl5ev" version="14.2.4" type="embed">
    <diagram id="Bbg1Sb1JWJOhMebA5Jdu" name="Page-1">
        <mxGraphModel dx="1197" dy="477" grid="1" gridSize="10" guides="1" tooltips="1" connect="1" arrows="1" fold="1" page="0" pageScale="1" pageWidth="827" pageHeight="1169" math="0" shadow="0">
            <root>
                <mxCell id="0"/>
                <mxCell id="1" parent="0"/>
                <mxCell id="306" style="edgeStyle=orthogonalEdgeStyle;rounded=0;orthogonalLoop=1;jettySize=auto;html=1;startSize=44;endArrow=diamondThin;endFill=0;endSize=20;strokeColor=#A80036;strokeWidth=2;" parent="1" source="24" edge="1">
                    <mxGeometry relative="1" as="geometry">
                        <mxPoint x="560" y="876" as="targetPoint"/>
                    </mxGeometry>
                </mxCell>
                <mxCell id="307" style="edgeStyle=orthogonalEdgeStyle;rounded=0;orthogonalLoop=1;jettySize=auto;html=1;startSize=44;endArrow=diamondThin;endFill=0;endSize=20;strokeColor=#A80036;strokeWidth=2;" parent="1" source="24" edge="1">
                    <mxGeometry relative="1" as="geometry">
                        <mxPoint x="920" y="876" as="targetPoint"/>
                    </mxGeometry>
                </mxCell>
                <mxCell id="308" style="edgeStyle=orthogonalEdgeStyle;rounded=0;orthogonalLoop=1;jettySize=auto;html=1;startSize=44;endArrow=diamondThin;endFill=0;endSize=20;strokeColor=#A80036;strokeWidth=2;entryX=0.5;entryY=1;entryDx=0;entryDy=0;" parent="1" source="24" target="180" edge="1">
                    <mxGeometry relative="1" as="geometry">
                        <mxPoint x="740" y="610" as="targetPoint"/>
                    </mxGeometry>
                </mxCell>
                <mxCell id="24" value="Vector2D" style="swimlane;fontStyle=1;align=center;verticalAlign=middle;childLayout=stackLayout;horizontal=1;startSize=32;horizontalStack=0;resizeParent=1;resizeParentMax=0;resizeLast=0;collapsible=0;marginBottom=0;rounded=0;shadow=1;glass=0;sketch=0;strokeColor=#a80036;strokeWidth=2;fillColor=#fefece;swimlaneFillColor=#FEFECE;expand=1;fontSize=12;spacingTop=0;spacingBottom=0;noLabel=0;snapToPoint=0;fixDash=0;autosize=0;container=0;backgroundOutline=0;overflow=visible;strokeOpacity=100;arcSize=15;" parent="1" vertex="1">
                    <mxGeometry x="620" y="726" width="240" height="300" as="geometry"/>
                </mxCell>
                <mxCell id="29" value="−" style="text;strokeColor=none;fillColor=none;align=left;verticalAlign=middle;spacingLeft=2;spacingRight=4;overflow=hidden;rotatable=0;points=[[0,0.5],[1,0.5]];portConstraint=eastwest;container=0;fontColor=#C82930;fontSize=14;spacingTop=0;fontStyle=1;dropTarget=0;" parent="24" vertex="1">
                    <mxGeometry y="32" width="240" height="20" as="geometry"/>
                </mxCell>
                <mxCell id="30" value="x : double" style="text;strokeColor=none;fillColor=none;align=left;verticalAlign=middle;spacingLeft=4;spacingRight=4;overflow=hidden;rotatable=0;points=[[0,0.5],[1,0.5]];portConstraint=eastwest;fontStyle=0;autosize=1;" parent="29" vertex="1">
                    <mxGeometry x="10" width="80" height="20" as="geometry"/>
                </mxCell>
                <mxCell id="101" value="−" style="text;strokeColor=none;fillColor=none;align=left;verticalAlign=middle;spacingLeft=2;spacingRight=4;overflow=hidden;rotatable=0;points=[[0,0.5],[1,0.5]];portConstraint=eastwest;container=0;fontColor=#C82930;fontSize=14;spacingTop=0;fontStyle=1;dropTarget=0;" parent="24" vertex="1">
                    <mxGeometry y="52" width="240" height="20" as="geometry"/>
                </mxCell>
                <mxCell id="102" value="y : double" style="text;strokeColor=none;fillColor=none;align=left;verticalAlign=middle;spacingLeft=4;spacingRight=4;overflow=hidden;rotatable=0;points=[[0,0.5],[1,0.5]];portConstraint=eastwest;fontStyle=0;autosize=1;" parent="101" vertex="1">
                    <mxGeometry x="10" width="80" height="20" as="geometry"/>
                </mxCell>
                <mxCell id="31" value="" style="line;strokeWidth=2;fillColor=none;align=left;verticalAlign=middle;spacingTop=-1;spacingLeft=3;spacingRight=3;rotatable=0;labelPosition=right;points=[];portConstraint=eastwest;strokeColor=#A80036;" parent="24" vertex="1">
                    <mxGeometry y="72" width="240" height="2" as="geometry"/>
                </mxCell>
                <mxCell id="42" value="+" style="text;strokeColor=none;fillColor=none;align=left;verticalAlign=middle;spacingLeft=2;spacingRight=4;overflow=hidden;rotatable=0;points=[[0,0.5],[1,0.5]];portConstraint=eastwest;container=0;fontColor=#038048;fontStyle=1;fontSize=14;dropTarget=0;" parent="24" vertex="1">
                    <mxGeometry y="74" width="240" height="20" as="geometry"/>
                </mxCell>
                <mxCell id="43" value="Vector2D()" style="text;strokeColor=none;fillColor=none;align=left;verticalAlign=middle;spacingLeft=4;spacingRight=4;overflow=hidden;rotatable=0;points=[[0,0.5],[1,0.5]];portConstraint=eastwest;fontStyle=0;autosize=1;" parent="42" vertex="1">
                    <mxGeometry x="10" width="80" height="20" as="geometry"/>
                </mxCell>
                <mxCell id="44" value="+" style="text;strokeColor=none;fillColor=none;align=left;verticalAlign=middle;spacingLeft=2;spacingRight=4;overflow=hidden;rotatable=0;points=[[0,0.5],[1,0.5]];portConstraint=eastwest;container=0;fontColor=#038048;fontStyle=1;fontSize=14;dropTarget=0;" parent="24" vertex="1">
                    <mxGeometry y="94" width="240" height="20" as="geometry"/>
                </mxCell>
                <mxCell id="45" value="copy() : Vector2D" style="text;strokeColor=none;fillColor=none;align=left;verticalAlign=middle;spacingLeft=4;spacingRight=4;overflow=hidden;rotatable=0;points=[[0,0.5],[1,0.5]];portConstraint=eastwest;fontStyle=0;autosize=1;" parent="44" vertex="1">
                    <mxGeometry x="10" width="120" height="20" as="geometry"/>
                </mxCell>
                <mxCell id="41" value="" style="line;strokeWidth=1;fillColor=none;align=left;verticalAlign=middle;spacingTop=-1;spacingLeft=3;spacingRight=3;rotatable=0;labelPosition=right;points=[];portConstraint=eastwest;strokeColor=#A80036;dashed=1;dashPattern=1 2;" parent="24" vertex="1">
                    <mxGeometry y="114" width="240" height="2" as="geometry"/>
                </mxCell>
                <mxCell id="103" value="+" style="text;strokeColor=none;fillColor=none;align=left;verticalAlign=middle;spacingLeft=2;spacingRight=4;overflow=hidden;rotatable=0;points=[[0,0.5],[1,0.5]];portConstraint=eastwest;container=0;fontColor=#038048;fontStyle=1;fontSize=14;dropTarget=0;" parent="24" vertex="1">
                    <mxGeometry y="116" width="240" height="20" as="geometry"/>
                </mxCell>
                <mxCell id="104" value="getX() : double" style="text;strokeColor=none;fillColor=none;align=left;verticalAlign=middle;spacingLeft=4;spacingRight=4;overflow=hidden;rotatable=0;points=[[0,0.5],[1,0.5]];portConstraint=eastwest;fontStyle=0;autosize=1;" parent="103" vertex="1">
                    <mxGeometry x="10" width="100" height="20" as="geometry"/>
                </mxCell>
                <mxCell id="105" value="+" style="text;strokeColor=none;fillColor=none;align=left;verticalAlign=middle;spacingLeft=2;spacingRight=4;overflow=hidden;rotatable=0;points=[[0,0.5],[1,0.5]];portConstraint=eastwest;container=0;fontColor=#038048;fontStyle=1;fontSize=14;dropTarget=0;" parent="24" vertex="1">
                    <mxGeometry y="136" width="240" height="20" as="geometry"/>
                </mxCell>
                <mxCell id="106" value="setX(x : double) : void" style="text;strokeColor=none;fillColor=none;align=left;verticalAlign=middle;spacingLeft=4;spacingRight=4;overflow=hidden;rotatable=0;points=[[0,0.5],[1,0.5]];portConstraint=eastwest;fontStyle=0;autosize=1;" parent="105" vertex="1">
                    <mxGeometry x="10" width="140" height="20" as="geometry"/>
                </mxCell>
                <mxCell id="107" value="+" style="text;strokeColor=none;fillColor=none;align=left;verticalAlign=middle;spacingLeft=2;spacingRight=4;overflow=hidden;rotatable=0;points=[[0,0.5],[1,0.5]];portConstraint=eastwest;container=0;fontColor=#038048;fontStyle=1;fontSize=14;dropTarget=0;" parent="24" vertex="1">
                    <mxGeometry y="156" width="240" height="20" as="geometry"/>
                </mxCell>
                <mxCell id="108" value="getY() : double" style="text;strokeColor=none;fillColor=none;align=left;verticalAlign=middle;spacingLeft=4;spacingRight=4;overflow=hidden;rotatable=0;points=[[0,0.5],[1,0.5]];portConstraint=eastwest;fontStyle=0;autosize=1;" parent="107" vertex="1">
                    <mxGeometry x="10" width="100" height="20" as="geometry"/>
                </mxCell>
                <mxCell id="109" value="+" style="text;strokeColor=none;fillColor=none;align=left;verticalAlign=middle;spacingLeft=2;spacingRight=4;overflow=hidden;rotatable=0;points=[[0,0.5],[1,0.5]];portConstraint=eastwest;container=0;fontColor=#038048;fontStyle=1;fontSize=14;dropTarget=0;" parent="24" vertex="1">
                    <mxGeometry y="176" width="240" height="20" as="geometry"/>
                </mxCell>
                <mxCell id="110" value="setY(y : double) : void" style="text;strokeColor=none;fillColor=none;align=left;verticalAlign=middle;spacingLeft=4;spacingRight=4;overflow=hidden;rotatable=0;points=[[0,0.5],[1,0.5]];portConstraint=eastwest;fontStyle=0;autosize=1;" parent="109" vertex="1">
                    <mxGeometry x="10" width="140" height="20" as="geometry"/>
                </mxCell>
                <mxCell id="113" value="" style="line;strokeWidth=1;fillColor=none;align=left;verticalAlign=middle;spacingTop=-1;spacingLeft=3;spacingRight=3;rotatable=0;labelPosition=right;points=[];portConstraint=eastwest;strokeColor=#A80036;dashed=1;dashPattern=1 2;" parent="24" vertex="1">
                    <mxGeometry y="196" width="240" height="2" as="geometry"/>
                </mxCell>
                <mxCell id="111" value="+" style="text;strokeColor=none;fillColor=none;align=left;verticalAlign=middle;spacingLeft=2;spacingRight=4;overflow=hidden;rotatable=0;points=[[0,0.5],[1,0.5]];portConstraint=eastwest;container=0;fontColor=#038048;fontStyle=1;fontSize=14;dropTarget=0;" parent="24" vertex="1">
                    <mxGeometry y="198" width="240" height="20" as="geometry"/>
                </mxCell>
                <mxCell id="112" value="toString() : String" style="text;strokeColor=none;fillColor=none;align=left;verticalAlign=middle;spacingLeft=4;spacingRight=4;overflow=hidden;rotatable=0;points=[[0,0.5],[1,0.5]];portConstraint=eastwest;fontStyle=0;autosize=1;" parent="111" vertex="1">
                    <mxGeometry x="10" width="110" height="20" as="geometry"/>
                </mxCell>
                <mxCell id="114" value="+" style="text;strokeColor=none;fillColor=none;align=left;verticalAlign=middle;spacingLeft=2;spacingRight=4;overflow=hidden;rotatable=0;points=[[0,0.5],[1,0.5]];portConstraint=eastwest;container=0;fontColor=#038048;fontStyle=1;fontSize=14;dropTarget=0;" parent="24" vertex="1">
                    <mxGeometry y="218" width="240" height="20" as="geometry"/>
                </mxCell>
                <mxCell id="115" value="equals(obj : Object) : boolean" style="text;strokeColor=none;fillColor=none;align=left;verticalAlign=middle;spacingLeft=4;spacingRight=4;overflow=hidden;rotatable=0;points=[[0,0.5],[1,0.5]];portConstraint=eastwest;fontStyle=0;autosize=1;" parent="114" vertex="1">
                    <mxGeometry x="10" width="180" height="20" as="geometry"/>
                </mxCell>
                <mxCell id="116" value="+" style="text;strokeColor=none;fillColor=none;align=left;verticalAlign=middle;spacingLeft=2;spacingRight=4;overflow=hidden;rotatable=0;points=[[0,0.5],[1,0.5]];portConstraint=eastwest;container=0;fontColor=#038048;fontStyle=1;fontSize=14;dropTarget=0;" parent="24" vertex="1">
                    <mxGeometry y="238" width="240" height="20" as="geometry"/>
                </mxCell>
                <mxCell id="117" value="hashCode() : int" style="text;strokeColor=none;fillColor=none;align=left;verticalAlign=middle;spacingLeft=4;spacingRight=4;overflow=hidden;rotatable=0;points=[[0,0.5],[1,0.5]];portConstraint=eastwest;fontStyle=0;autosize=1;" parent="116" vertex="1">
                    <mxGeometry x="10" width="110" height="20" as="geometry"/>
                </mxCell>
                <mxCell id="122" value="" style="line;strokeWidth=1;fillColor=none;align=left;verticalAlign=middle;spacingTop=-1;spacingLeft=3;spacingRight=3;rotatable=0;labelPosition=right;points=[];portConstraint=eastwest;strokeColor=#A80036;dashed=1;dashPattern=1 2;" parent="24" vertex="1">
                    <mxGeometry y="258" width="240" height="2" as="geometry"/>
                </mxCell>
                <mxCell id="118" value="+" style="text;strokeColor=none;fillColor=none;align=left;verticalAlign=middle;spacingLeft=2;spacingRight=4;overflow=hidden;rotatable=0;points=[[0,0.5],[1,0.5]];portConstraint=eastwest;container=0;fontColor=#038048;fontStyle=1;fontSize=14;dropTarget=0;" parent="24" vertex="1">
                    <mxGeometry y="260" width="240" height="20" as="geometry"/>
                </mxCell>
                <mxCell id="119" value="add(vector2D : Vector2D) : Vector2D" style="text;strokeColor=none;fillColor=none;align=left;verticalAlign=middle;spacingLeft=4;spacingRight=4;overflow=hidden;rotatable=0;points=[[0,0.5],[1,0.5]];portConstraint=eastwest;fontStyle=0;autosize=1;" parent="118" vertex="1">
                    <mxGeometry x="10" width="220" height="20" as="geometry"/>
                </mxCell>
                <mxCell id="120" value="+" style="text;strokeColor=none;fillColor=none;align=left;verticalAlign=middle;spacingLeft=2;spacingRight=4;overflow=hidden;rotatable=0;points=[[0,0.5],[1,0.5]];portConstraint=eastwest;container=0;fontColor=#038048;fontStyle=1;fontSize=14;dropTarget=0;" parent="24" vertex="1">
                    <mxGeometry y="280" width="240" height="20" as="geometry"/>
                </mxCell>
                <mxCell id="121" value="subtract(vector2D : Vector2D) : Vector2D" style="text;strokeColor=none;fillColor=none;align=left;verticalAlign=middle;spacingLeft=4;spacingRight=4;overflow=hidden;rotatable=0;points=[[0,0.5],[1,0.5]];portConstraint=eastwest;fontStyle=0;autosize=1;" parent="120" vertex="1">
                    <mxGeometry x="10" width="240" height="20" as="geometry"/>
                </mxCell>
                <mxCell id="310" style="edgeStyle=none;rounded=0;orthogonalLoop=1;jettySize=auto;html=1;startSize=44;endArrow=diamondThin;endFill=1;endSize=20;strokeColor=#A80036;strokeWidth=2;exitX=0.75;exitY=0;exitDx=0;exitDy=0;entryX=0.25;entryY=1;entryDx=0;entryDy=0;" parent="1" source="50" target="180" edge="1">
                    <mxGeometry relative="1" as="geometry">
                        <mxPoint x="570" y="610" as="targetPoint"/>
                    </mxGeometry>
                </mxCell>
                <mxCell id="50" value="&lt;&lt;Enum&gt;&gt;&#10;Shape" style="swimlane;fontStyle=3;align=center;verticalAlign=middle;childLayout=stackLayout;horizontal=1;startSize=44;horizontalStack=0;resizeParent=1;resizeParentMax=0;resizeLast=0;collapsible=0;marginBottom=0;rounded=0;shadow=1;glass=0;sketch=0;strokeColor=#a80036;strokeWidth=2;fillColor=#fefece;swimlaneFillColor=#FEFECE;expand=1;fontSize=12;spacingTop=0;spacingBottom=0;noLabel=0;snapToPoint=0;fixDash=0;autosize=0;container=0;backgroundOutline=0;overflow=visible;strokeOpacity=100;arcSize=15;" parent="1" vertex="1">
                    <mxGeometry x="100" y="680" width="460" height="392" as="geometry"/>
                </mxCell>
                <mxCell id="51" value="" style="text;strokeColor=none;fillColor=none;align=left;verticalAlign=middle;spacingLeft=2;spacingRight=4;overflow=hidden;rotatable=0;points=[[0,0.5],[1,0.5]];portConstraint=eastwest;container=0;fontColor=#038048;fontStyle=1;fontSize=14;dropTarget=0;" parent="50" vertex="1">
                    <mxGeometry y="44" width="460" height="20" as="geometry"/>
                </mxCell>
                <mxCell id="52" value="I" style="text;strokeColor=none;fillColor=none;align=left;verticalAlign=middle;spacingLeft=4;spacingRight=4;overflow=hidden;rotatable=0;points=[[0,0.5],[1,0.5]];portConstraint=eastwest;fontStyle=1;autosize=1;" parent="51" vertex="1">
                    <mxGeometry x="10" width="30" height="20" as="geometry"/>
                </mxCell>
                <mxCell id="74" value="" style="text;strokeColor=none;fillColor=none;align=left;verticalAlign=middle;spacingLeft=2;spacingRight=4;overflow=hidden;rotatable=0;points=[[0,0.5],[1,0.5]];portConstraint=eastwest;container=0;fontColor=#038048;fontStyle=1;fontSize=14;dropTarget=0;" parent="50" vertex="1">
                    <mxGeometry y="64" width="460" height="20" as="geometry"/>
                </mxCell>
                <mxCell id="75" value="J" style="text;strokeColor=none;fillColor=none;align=left;verticalAlign=middle;spacingLeft=4;spacingRight=4;overflow=hidden;rotatable=0;points=[[0,0.5],[1,0.5]];portConstraint=eastwest;fontStyle=1;autosize=1;" parent="74" vertex="1">
                    <mxGeometry x="10" width="30" height="20" as="geometry"/>
                </mxCell>
                <mxCell id="76" value="" style="text;strokeColor=none;fillColor=none;align=left;verticalAlign=middle;spacingLeft=2;spacingRight=4;overflow=hidden;rotatable=0;points=[[0,0.5],[1,0.5]];portConstraint=eastwest;container=0;fontColor=#038048;fontStyle=1;fontSize=14;dropTarget=0;" parent="50" vertex="1">
                    <mxGeometry y="84" width="460" height="20" as="geometry"/>
                </mxCell>
                <mxCell id="77" value="L" style="text;strokeColor=none;fillColor=none;align=left;verticalAlign=middle;spacingLeft=4;spacingRight=4;overflow=hidden;rotatable=0;points=[[0,0.5],[1,0.5]];portConstraint=eastwest;fontStyle=1;autosize=1;" parent="76" vertex="1">
                    <mxGeometry x="10" width="30" height="20" as="geometry"/>
                </mxCell>
                <mxCell id="78" value="" style="text;strokeColor=none;fillColor=none;align=left;verticalAlign=middle;spacingLeft=2;spacingRight=4;overflow=hidden;rotatable=0;points=[[0,0.5],[1,0.5]];portConstraint=eastwest;container=0;fontColor=#038048;fontStyle=1;fontSize=14;dropTarget=0;" parent="50" vertex="1">
                    <mxGeometry y="104" width="460" height="20" as="geometry"/>
                </mxCell>
                <mxCell id="79" value="O" style="text;strokeColor=none;fillColor=none;align=left;verticalAlign=middle;spacingLeft=4;spacingRight=4;overflow=hidden;rotatable=0;points=[[0,0.5],[1,0.5]];portConstraint=eastwest;fontStyle=1;autosize=1;" parent="78" vertex="1">
                    <mxGeometry x="10" width="30" height="20" as="geometry"/>
                </mxCell>
                <mxCell id="80" value="" style="text;strokeColor=none;fillColor=none;align=left;verticalAlign=middle;spacingLeft=2;spacingRight=4;overflow=hidden;rotatable=0;points=[[0,0.5],[1,0.5]];portConstraint=eastwest;container=0;fontColor=#038048;fontStyle=1;fontSize=14;dropTarget=0;" parent="50" vertex="1">
                    <mxGeometry y="124" width="460" height="20" as="geometry"/>
                </mxCell>
                <mxCell id="81" value="S" style="text;strokeColor=none;fillColor=none;align=left;verticalAlign=middle;spacingLeft=4;spacingRight=4;overflow=hidden;rotatable=0;points=[[0,0.5],[1,0.5]];portConstraint=eastwest;fontStyle=1;autosize=1;" parent="80" vertex="1">
                    <mxGeometry x="10" width="30" height="20" as="geometry"/>
                </mxCell>
                <mxCell id="82" value="" style="text;strokeColor=none;fillColor=none;align=left;verticalAlign=middle;spacingLeft=2;spacingRight=4;overflow=hidden;rotatable=0;points=[[0,0.5],[1,0.5]];portConstraint=eastwest;container=0;fontColor=#038048;fontStyle=1;fontSize=14;dropTarget=0;" parent="50" vertex="1">
                    <mxGeometry y="144" width="460" height="20" as="geometry"/>
                </mxCell>
                <mxCell id="83" value="T" style="text;strokeColor=none;fillColor=none;align=left;verticalAlign=middle;spacingLeft=4;spacingRight=4;overflow=hidden;rotatable=0;points=[[0,0.5],[1,0.5]];portConstraint=eastwest;fontStyle=1;autosize=1;" parent="82" vertex="1">
                    <mxGeometry x="10" width="30" height="20" as="geometry"/>
                </mxCell>
                <mxCell id="84" value="" style="text;strokeColor=none;fillColor=none;align=left;verticalAlign=middle;spacingLeft=2;spacingRight=4;overflow=hidden;rotatable=0;points=[[0,0.5],[1,0.5]];portConstraint=eastwest;container=0;fontColor=#038048;fontStyle=1;fontSize=14;dropTarget=0;" parent="50" vertex="1">
                    <mxGeometry y="164" width="460" height="20" as="geometry"/>
                </mxCell>
                <mxCell id="85" value="Z" style="text;strokeColor=none;fillColor=none;align=left;verticalAlign=middle;spacingLeft=4;spacingRight=4;overflow=hidden;rotatable=0;points=[[0,0.5],[1,0.5]];portConstraint=eastwest;fontStyle=1;autosize=1;" parent="84" vertex="1">
                    <mxGeometry x="10" width="30" height="20" as="geometry"/>
                </mxCell>
                <mxCell id="86" value="" style="line;strokeWidth=1;fillColor=none;align=left;verticalAlign=middle;spacingTop=-1;spacingLeft=3;spacingRight=3;rotatable=0;labelPosition=right;points=[];portConstraint=eastwest;strokeColor=#A80036;dashed=1;dashPattern=1 2;" parent="50" vertex="1">
                    <mxGeometry y="184" width="460" height="2" as="geometry"/>
                </mxCell>
                <mxCell id="55" value="−" style="text;strokeColor=none;fillColor=none;align=left;verticalAlign=middle;spacingLeft=2;spacingRight=4;overflow=hidden;rotatable=0;points=[[0,0.5],[1,0.5]];portConstraint=eastwest;container=0;fontStyle=1;fontSize=14;fontColor=#C82930;dropTarget=0;" parent="50" vertex="1">
                    <mxGeometry y="186" width="460" height="20" as="geometry"/>
                </mxCell>
                <mxCell id="56" value="shapeByDirection : EnumMap&lt;Direction, List&lt;List&lt;Integer&gt;&gt;&gt;" style="text;strokeColor=none;fillColor=none;align=left;verticalAlign=middle;spacingLeft=4;spacingRight=4;overflow=hidden;rotatable=0;points=[[0,0.5],[1,0.5]];portConstraint=eastwest;fontStyle=0;autosize=1;" parent="55" vertex="1">
                    <mxGeometry x="10" width="350" height="20" as="geometry"/>
                </mxCell>
                <mxCell id="87" value="−" style="text;strokeColor=none;fillColor=none;align=left;verticalAlign=middle;spacingLeft=2;spacingRight=4;overflow=hidden;rotatable=0;points=[[0,0.5],[1,0.5]];portConstraint=eastwest;container=0;fontStyle=1;fontSize=14;fontColor=#C82930;dropTarget=0;" parent="50" vertex="1">
                    <mxGeometry y="206" width="460" height="20" as="geometry"/>
                </mxCell>
                <mxCell id="88" value="center : Vector2D" style="text;strokeColor=none;fillColor=none;align=left;verticalAlign=middle;spacingLeft=4;spacingRight=4;overflow=hidden;rotatable=0;points=[[0,0.5],[1,0.5]];portConstraint=eastwest;fontStyle=0;autosize=1;" parent="87" vertex="1">
                    <mxGeometry x="10" width="120" height="20" as="geometry"/>
                </mxCell>
                <mxCell id="97" value="" style="line;strokeWidth=1;fillColor=none;align=left;verticalAlign=middle;spacingTop=-1;spacingLeft=3;spacingRight=3;rotatable=0;labelPosition=right;points=[];portConstraint=eastwest;strokeColor=#A80036;dashed=1;dashPattern=1 2;" parent="50" vertex="1">
                    <mxGeometry y="226" width="460" height="2" as="geometry"/>
                </mxCell>
                <mxCell id="89" value="−" style="text;strokeColor=none;fillColor=none;align=left;verticalAlign=middle;spacingLeft=2;spacingRight=4;overflow=hidden;rotatable=0;points=[[0,0.5],[1,0.5]];portConstraint=eastwest;container=0;fontStyle=1;fontSize=14;fontColor=#C82930;dropTarget=0;" parent="50" vertex="1">
                    <mxGeometry y="228" width="460" height="20" as="geometry"/>
                </mxCell>
                <mxCell id="90" value="shapes : Shape[]" style="text;strokeColor=none;fillColor=none;align=left;verticalAlign=middle;spacingLeft=4;spacingRight=4;overflow=hidden;rotatable=0;points=[[0,0.5],[1,0.5]];portConstraint=eastwest;fontStyle=4;autosize=1;" parent="89" vertex="1">
                    <mxGeometry x="10" width="110" height="20" as="geometry"/>
                </mxCell>
                <mxCell id="91" value="−" style="text;strokeColor=none;fillColor=none;align=left;verticalAlign=middle;spacingLeft=2;spacingRight=4;overflow=hidden;rotatable=0;points=[[0,0.5],[1,0.5]];portConstraint=eastwest;container=0;fontStyle=1;fontSize=14;fontColor=#C82930;dropTarget=0;" parent="50" vertex="1">
                    <mxGeometry y="248" width="460" height="20" as="geometry"/>
                </mxCell>
                <mxCell id="92" value="length : int" style="text;strokeColor=none;fillColor=none;align=left;verticalAlign=middle;spacingLeft=4;spacingRight=4;overflow=hidden;rotatable=0;points=[[0,0.5],[1,0.5]];portConstraint=eastwest;fontStyle=4;autosize=1;" parent="91" vertex="1">
                    <mxGeometry x="10" width="80" height="20" as="geometry"/>
                </mxCell>
                <mxCell id="93" value="−" style="text;strokeColor=none;fillColor=none;align=left;verticalAlign=middle;spacingLeft=2;spacingRight=4;overflow=hidden;rotatable=0;points=[[0,0.5],[1,0.5]];portConstraint=eastwest;container=0;fontStyle=1;fontSize=14;fontColor=#C82930;dropTarget=0;" parent="50" vertex="1">
                    <mxGeometry y="268" width="460" height="20" as="geometry"/>
                </mxCell>
                <mxCell id="94" value="random : Random" style="text;strokeColor=none;fillColor=none;align=left;verticalAlign=middle;spacingLeft=4;spacingRight=4;overflow=hidden;rotatable=0;points=[[0,0.5],[1,0.5]];portConstraint=eastwest;fontStyle=4;autosize=1;" parent="93" vertex="1">
                    <mxGeometry x="10" width="120" height="20" as="geometry"/>
                </mxCell>
                <mxCell id="95" value="−" style="text;strokeColor=none;fillColor=none;align=left;verticalAlign=middle;spacingLeft=2;spacingRight=4;overflow=hidden;rotatable=0;points=[[0,0.5],[1,0.5]];portConstraint=eastwest;container=0;fontStyle=1;fontSize=14;fontColor=#C82930;dropTarget=0;" parent="50" vertex="1">
                    <mxGeometry y="288" width="460" height="20" as="geometry"/>
                </mxCell>
                <mxCell id="96" value="lastRandom : Shape" style="text;strokeColor=none;fillColor=none;align=left;verticalAlign=middle;spacingLeft=4;spacingRight=4;overflow=hidden;rotatable=0;points=[[0,0.5],[1,0.5]];portConstraint=eastwest;fontStyle=4;autosize=1;" parent="95" vertex="1">
                    <mxGeometry x="10" width="130" height="20" as="geometry"/>
                </mxCell>
                <mxCell id="57" value="" style="line;strokeWidth=2;fillColor=none;align=left;verticalAlign=middle;spacingTop=-1;spacingLeft=3;spacingRight=3;rotatable=0;labelPosition=right;points=[];portConstraint=eastwest;strokeColor=#A80036;" parent="50" vertex="1">
                    <mxGeometry y="308" width="460" height="2" as="geometry"/>
                </mxCell>
                <mxCell id="58" value="−" style="text;strokeColor=none;fillColor=none;align=left;verticalAlign=middle;spacingLeft=2;spacingRight=4;overflow=hidden;rotatable=0;points=[[0,0.5],[1,0.5]];portConstraint=eastwest;container=0;fontSize=14;spacingTop=0;fontStyle=1;fontColor=#C82930;dropTarget=0;" parent="50" vertex="1">
                    <mxGeometry y="310" width="460" height="20" as="geometry"/>
                </mxCell>
                <mxCell id="59" value="Shape(enumMapProducer : EnumMapProducer&lt;Direction, List&lt;List&lt;Integer&gt;&gt;&gt;)" style="text;strokeColor=none;fillColor=none;align=left;verticalAlign=middle;spacingLeft=4;spacingRight=4;overflow=hidden;rotatable=0;points=[[0,0.5],[1,0.5]];portConstraint=eastwest;fontStyle=0;autosize=1;" parent="58" vertex="1">
                    <mxGeometry x="10" width="450" height="20" as="geometry"/>
                </mxCell>
                <mxCell id="98" value="+" style="text;strokeColor=none;fillColor=none;align=left;verticalAlign=middle;spacingLeft=2;spacingRight=4;overflow=hidden;rotatable=0;points=[[0,0.5],[1,0.5]];portConstraint=eastwest;container=0;fontColor=#038048;fontStyle=1;fontSize=14;dropTarget=0;" parent="50" vertex="1">
                    <mxGeometry y="330" width="460" height="20" as="geometry"/>
                </mxCell>
                <mxCell id="99" value="random() : Shape" style="text;strokeColor=none;fillColor=none;align=left;verticalAlign=middle;spacingLeft=4;spacingRight=4;overflow=hidden;rotatable=0;points=[[0,0.5],[1,0.5]];portConstraint=eastwest;fontStyle=0;autosize=1;" parent="98" vertex="1">
                    <mxGeometry x="10" width="120" height="20" as="geometry"/>
                </mxCell>
                <mxCell id="67" value="" style="line;strokeWidth=1;fillColor=none;align=left;verticalAlign=middle;spacingTop=-1;spacingLeft=3;spacingRight=3;rotatable=0;labelPosition=right;points=[];portConstraint=eastwest;strokeColor=#A80036;dashed=1;dashPattern=1 2;" parent="50" vertex="1">
                    <mxGeometry y="350" width="460" height="2" as="geometry"/>
                </mxCell>
                <mxCell id="68" value="+" style="text;strokeColor=none;fillColor=none;align=left;verticalAlign=middle;spacingLeft=2;spacingRight=4;overflow=hidden;rotatable=0;points=[[0,0.5],[1,0.5]];portConstraint=eastwest;container=0;fontColor=#038048;fontStyle=1;fontSize=14;dropTarget=0;" parent="50" vertex="1">
                    <mxGeometry y="352" width="460" height="20" as="geometry"/>
                </mxCell>
                <mxCell id="69" value="getCenter() : Vector2D" style="text;strokeColor=none;fillColor=none;align=left;verticalAlign=middle;spacingLeft=4;spacingRight=4;overflow=hidden;rotatable=0;points=[[0,0.5],[1,0.5]];portConstraint=eastwest;fontStyle=0;autosize=1;" parent="68" vertex="1">
                    <mxGeometry x="10" width="140" height="20" as="geometry"/>
                </mxCell>
                <mxCell id="70" value="+" style="text;strokeColor=none;fillColor=none;align=left;verticalAlign=middle;spacingLeft=2;spacingRight=4;overflow=hidden;rotatable=0;points=[[0,0.5],[1,0.5]];portConstraint=eastwest;container=0;fontColor=#038048;fontStyle=1;fontSize=14;dropTarget=0;" parent="50" vertex="1">
                    <mxGeometry y="372" width="460" height="20" as="geometry"/>
                </mxCell>
                <mxCell id="71" value="getShapeForDirection(direction : Direction) : List&lt;List&lt;Integer&gt;&gt;" style="text;strokeColor=none;fillColor=none;align=left;verticalAlign=middle;spacingLeft=4;spacingRight=4;overflow=hidden;rotatable=0;points=[[0,0.5],[1,0.5]];portConstraint=eastwest;fontStyle=0;autosize=1;" parent="70" vertex="1">
                    <mxGeometry x="10" width="360" height="20" as="geometry"/>
                </mxCell>
                <mxCell id="100" value="" style="group;imageWidth=24;spacingBottom=0;" parent="1" vertex="1" connectable="0">
                    <mxGeometry x="210" y="1130" width="225" height="71" as="geometry"/>
                </mxCell>
                <mxCell id="2" value="&lt;&lt;Functional Interface&gt;&gt;&#10;Classname" style="swimlane;fontStyle=3;align=center;verticalAlign=middle;childLayout=stackLayout;horizontal=1;startSize=44;horizontalStack=0;resizeParent=1;resizeParentMax=0;resizeLast=0;collapsible=0;marginBottom=0;rounded=0;shadow=1;glass=0;sketch=0;strokeColor=#a80036;strokeWidth=2;fillColor=#fefece;swimlaneFillColor=#FEFECE;expand=1;fontSize=12;spacingTop=0;spacingBottom=-8;noLabel=0;snapToPoint=0;fixDash=0;autosize=0;container=0;backgroundOutline=0;overflow=visible;strokeOpacity=100;arcSize=15;" parent="100" vertex="1">
                    <mxGeometry x="20" y="5" width="200" height="64" as="geometry"/>
                </mxCell>
                <mxCell id="20" value="+" style="text;strokeColor=none;fillColor=none;align=left;verticalAlign=middle;spacingLeft=2;spacingRight=4;overflow=hidden;rotatable=0;points=[[0,0.5],[1,0.5]];portConstraint=eastwest;container=0;fontColor=#038048;fontStyle=1;fontSize=14;dropTarget=0;" parent="2" vertex="1">
                    <mxGeometry y="44" width="200" height="20" as="geometry"/>
                </mxCell>
                <mxCell id="21" value="getEnumMap() : EnumMap&lt;K, V&gt;" style="text;strokeColor=none;fillColor=none;align=left;verticalAlign=middle;spacingLeft=4;spacingRight=4;overflow=hidden;rotatable=0;points=[[0,0.5],[1,0.5]];portConstraint=eastwest;fontStyle=2;autosize=1;" parent="20" vertex="1">
                    <mxGeometry x="10" width="200" height="20" as="geometry"/>
                </mxCell>
                <mxCell id="47" value="&lt; K extends Enum&lt;K&gt;, V &gt;" style="fontStyle=0;dashed=1;rounded=0;shadow=1;glass=0;sketch=0;startSize=26;strokeWidth=1;fontSize=12;fillColor=#FFFFFF;imageWidth=24;" parent="100" vertex="1">
                    <mxGeometry x="80" width="145" height="15" as="geometry"/>
                </mxCell>
                <mxCell id="309" style="rounded=0;orthogonalLoop=1;jettySize=auto;html=1;startSize=44;endArrow=diamondThin;endFill=0;endSize=20;strokeColor=#A80036;strokeWidth=2;exitX=0.25;exitY=0;exitDx=0;exitDy=0;entryX=0.75;entryY=1;entryDx=0;entryDy=0;" parent="1" source="145" target="180" edge="1">
                    <mxGeometry relative="1" as="geometry">
                        <mxPoint x="870" y="620" as="targetPoint"/>
                    </mxGeometry>
                </mxCell>
                <mxCell id="145" value="&lt;&lt;Enum&gt;&gt;&#10;Direction" style="swimlane;fontStyle=3;align=center;verticalAlign=middle;childLayout=stackLayout;horizontal=1;startSize=44;horizontalStack=0;resizeParent=1;resizeParentMax=0;resizeLast=0;collapsible=0;marginBottom=0;rounded=0;shadow=1;glass=0;sketch=0;strokeColor=#a80036;strokeWidth=2;fillColor=#fefece;swimlaneFillColor=#FEFECE;expand=1;fontSize=12;spacingTop=0;spacingBottom=0;noLabel=0;snapToPoint=0;fixDash=0;autosize=0;container=0;backgroundOutline=0;overflow=visible;strokeOpacity=100;arcSize=15;" parent="1" vertex="1">
                    <mxGeometry x="920" y="750" width="200" height="252" as="geometry"/>
                </mxCell>
                <mxCell id="146" value="" style="text;strokeColor=none;fillColor=none;align=left;verticalAlign=middle;spacingLeft=2;spacingRight=4;overflow=hidden;rotatable=0;points=[[0,0.5],[1,0.5]];portConstraint=eastwest;container=0;fontColor=#038048;fontStyle=1;fontSize=14;dropTarget=0;" parent="145" vertex="1">
                    <mxGeometry y="44" width="200" height="20" as="geometry"/>
                </mxCell>
                <mxCell id="147" value="UP" style="text;strokeColor=none;fillColor=none;align=left;verticalAlign=middle;spacingLeft=4;spacingRight=4;overflow=hidden;rotatable=0;points=[[0,0.5],[1,0.5]];portConstraint=eastwest;fontStyle=1;autosize=1;" parent="146" vertex="1">
                    <mxGeometry x="10" width="40" height="20" as="geometry"/>
                </mxCell>
                <mxCell id="167" value="" style="text;strokeColor=none;fillColor=none;align=left;verticalAlign=middle;spacingLeft=2;spacingRight=4;overflow=hidden;rotatable=0;points=[[0,0.5],[1,0.5]];portConstraint=eastwest;container=0;fontColor=#038048;fontStyle=1;fontSize=14;dropTarget=0;" parent="145" vertex="1">
                    <mxGeometry y="64" width="200" height="20" as="geometry"/>
                </mxCell>
                <mxCell id="168" value="RIGHT" style="text;strokeColor=none;fillColor=none;align=left;verticalAlign=middle;spacingLeft=4;spacingRight=4;overflow=hidden;rotatable=0;points=[[0,0.5],[1,0.5]];portConstraint=eastwest;fontStyle=1;autosize=1;" parent="167" vertex="1">
                    <mxGeometry x="10" width="60" height="20" as="geometry"/>
                </mxCell>
                <mxCell id="169" value="" style="text;strokeColor=none;fillColor=none;align=left;verticalAlign=middle;spacingLeft=2;spacingRight=4;overflow=hidden;rotatable=0;points=[[0,0.5],[1,0.5]];portConstraint=eastwest;container=0;fontColor=#038048;fontStyle=1;fontSize=14;dropTarget=0;" parent="145" vertex="1">
                    <mxGeometry y="84" width="200" height="20" as="geometry"/>
                </mxCell>
                <mxCell id="170" value="DOWN" style="text;strokeColor=none;fillColor=none;align=left;verticalAlign=middle;spacingLeft=4;spacingRight=4;overflow=hidden;rotatable=0;points=[[0,0.5],[1,0.5]];portConstraint=eastwest;fontStyle=1;autosize=1;" parent="169" vertex="1">
                    <mxGeometry x="10" width="60" height="20" as="geometry"/>
                </mxCell>
                <mxCell id="171" value="" style="text;strokeColor=none;fillColor=none;align=left;verticalAlign=middle;spacingLeft=2;spacingRight=4;overflow=hidden;rotatable=0;points=[[0,0.5],[1,0.5]];portConstraint=eastwest;container=0;fontColor=#038048;fontStyle=1;fontSize=14;dropTarget=0;" parent="145" vertex="1">
                    <mxGeometry y="104" width="200" height="20" as="geometry"/>
                </mxCell>
                <mxCell id="172" value="LEFT" style="text;strokeColor=none;fillColor=none;align=left;verticalAlign=middle;spacingLeft=4;spacingRight=4;overflow=hidden;rotatable=0;points=[[0,0.5],[1,0.5]];portConstraint=eastwest;fontStyle=1;autosize=1;" parent="171" vertex="1">
                    <mxGeometry x="10" width="50" height="20" as="geometry"/>
                </mxCell>
                <mxCell id="173" value="" style="line;strokeWidth=1;fillColor=none;align=left;verticalAlign=middle;spacingTop=-1;spacingLeft=3;spacingRight=3;rotatable=0;labelPosition=right;points=[];portConstraint=eastwest;strokeColor=#A80036;dashed=1;dashPattern=1 2;" parent="145" vertex="1">
                    <mxGeometry y="124" width="200" height="2" as="geometry"/>
                </mxCell>
                <mxCell id="150" value="−" style="text;strokeColor=none;fillColor=none;align=left;verticalAlign=middle;spacingLeft=2;spacingRight=4;overflow=hidden;rotatable=0;points=[[0,0.5],[1,0.5]];portConstraint=eastwest;container=0;fontStyle=1;fontSize=14;fontColor=#C82930;dropTarget=0;" parent="145" vertex="1">
                    <mxGeometry y="126" width="200" height="20" as="geometry"/>
                </mxCell>
                <mxCell id="151" value="directionVector : Vector2D" style="text;strokeColor=none;fillColor=none;align=left;verticalAlign=middle;spacingLeft=4;spacingRight=4;overflow=hidden;rotatable=0;points=[[0,0.5],[1,0.5]];portConstraint=eastwest;fontStyle=0;autosize=1;" parent="150" vertex="1">
                    <mxGeometry x="10" width="160" height="20" as="geometry"/>
                </mxCell>
                <mxCell id="162" value="" style="line;strokeWidth=1;fillColor=none;align=left;verticalAlign=middle;spacingTop=-1;spacingLeft=3;spacingRight=3;rotatable=0;labelPosition=right;points=[];portConstraint=eastwest;strokeColor=#A80036;dashed=1;dashPattern=1 2;" parent="145" vertex="1">
                    <mxGeometry y="146" width="200" height="2" as="geometry"/>
                </mxCell>
                <mxCell id="174" value="−" style="text;strokeColor=none;fillColor=none;align=left;verticalAlign=middle;spacingLeft=2;spacingRight=4;overflow=hidden;rotatable=0;points=[[0,0.5],[1,0.5]];portConstraint=eastwest;container=0;fontStyle=1;fontSize=14;fontColor=#C82930;dropTarget=0;" parent="145" vertex="1">
                    <mxGeometry y="148" width="200" height="20" as="geometry"/>
                </mxCell>
                <mxCell id="175" value="directions : Direction[]" style="text;strokeColor=none;fillColor=none;align=left;verticalAlign=middle;spacingLeft=4;spacingRight=4;overflow=hidden;rotatable=0;points=[[0,0.5],[1,0.5]];portConstraint=eastwest;fontStyle=4;autosize=1;" parent="174" vertex="1">
                    <mxGeometry x="10" width="140" height="20" as="geometry"/>
                </mxCell>
                <mxCell id="176" value="−" style="text;strokeColor=none;fillColor=none;align=left;verticalAlign=middle;spacingLeft=2;spacingRight=4;overflow=hidden;rotatable=0;points=[[0,0.5],[1,0.5]];portConstraint=eastwest;container=0;fontStyle=1;fontSize=14;fontColor=#C82930;dropTarget=0;" parent="145" vertex="1">
                    <mxGeometry y="168" width="200" height="20" as="geometry"/>
                </mxCell>
                <mxCell id="177" value="length : int" style="text;strokeColor=none;fillColor=none;align=left;verticalAlign=middle;spacingLeft=4;spacingRight=4;overflow=hidden;rotatable=0;points=[[0,0.5],[1,0.5]];portConstraint=eastwest;fontStyle=4;autosize=1;" parent="176" vertex="1">
                    <mxGeometry x="10" width="80" height="20" as="geometry"/>
                </mxCell>
                <mxCell id="152" value="" style="line;strokeWidth=2;fillColor=none;align=left;verticalAlign=middle;spacingTop=-1;spacingLeft=3;spacingRight=3;rotatable=0;labelPosition=right;points=[];portConstraint=eastwest;strokeColor=#A80036;" parent="145" vertex="1">
                    <mxGeometry y="188" width="200" height="2" as="geometry"/>
                </mxCell>
                <mxCell id="163" value="+" style="text;strokeColor=none;fillColor=none;align=left;verticalAlign=middle;spacingLeft=2;spacingRight=4;overflow=hidden;rotatable=0;points=[[0,0.5],[1,0.5]];portConstraint=eastwest;container=0;fontColor=#038048;fontStyle=1;fontSize=14;dropTarget=0;" parent="145" vertex="1">
                    <mxGeometry y="190" width="200" height="20" as="geometry"/>
                </mxCell>
                <mxCell id="164" value="getDirectionVector() : Vector2D" style="text;strokeColor=none;fillColor=none;align=left;verticalAlign=middle;spacingLeft=4;spacingRight=4;overflow=hidden;rotatable=0;points=[[0,0.5],[1,0.5]];portConstraint=eastwest;fontStyle=0;autosize=1;" parent="163" vertex="1">
                    <mxGeometry x="10" width="190" height="20" as="geometry"/>
                </mxCell>
                <mxCell id="157" value="" style="line;strokeWidth=1;fillColor=none;align=left;verticalAlign=middle;spacingTop=-1;spacingLeft=3;spacingRight=3;rotatable=0;labelPosition=right;points=[];portConstraint=eastwest;strokeColor=#A80036;dashed=1;dashPattern=1 2;" parent="145" vertex="1">
                    <mxGeometry y="210" width="200" height="2" as="geometry"/>
                </mxCell>
                <mxCell id="165" value="+" style="text;strokeColor=none;fillColor=none;align=left;verticalAlign=middle;spacingLeft=2;spacingRight=4;overflow=hidden;rotatable=0;points=[[0,0.5],[1,0.5]];portConstraint=eastwest;container=0;fontColor=#038048;fontStyle=1;fontSize=14;dropTarget=0;" parent="145" vertex="1">
                    <mxGeometry y="212" width="200" height="20" as="geometry"/>
                </mxCell>
                <mxCell id="166" value="next() : Direction" style="text;strokeColor=none;fillColor=none;align=left;verticalAlign=middle;spacingLeft=4;spacingRight=4;overflow=hidden;rotatable=0;points=[[0,0.5],[1,0.5]];portConstraint=eastwest;fontStyle=0;autosize=1;" parent="165" vertex="1">
                    <mxGeometry x="10" width="110" height="20" as="geometry"/>
                </mxCell>
                <mxCell id="178" value="+" style="text;strokeColor=none;fillColor=none;align=left;verticalAlign=middle;spacingLeft=2;spacingRight=4;overflow=hidden;rotatable=0;points=[[0,0.5],[1,0.5]];portConstraint=eastwest;container=0;fontColor=#038048;fontStyle=1;fontSize=14;dropTarget=0;" parent="145" vertex="1">
                    <mxGeometry y="232" width="200" height="20" as="geometry"/>
                </mxCell>
                <mxCell id="179" value="previous() : Direction" style="text;strokeColor=none;fillColor=none;align=left;verticalAlign=middle;spacingLeft=4;spacingRight=4;overflow=hidden;rotatable=0;points=[[0,0.5],[1,0.5]];portConstraint=eastwest;fontStyle=0;autosize=1;" parent="178" vertex="1">
                    <mxGeometry x="10" width="130" height="20" as="geometry"/>
                </mxCell>
                <mxCell id="180" value="Tetromino" style="swimlane;fontStyle=1;align=center;verticalAlign=middle;childLayout=stackLayout;horizontal=1;startSize=32;horizontalStack=0;resizeParent=1;resizeParentMax=0;resizeLast=0;collapsible=0;marginBottom=0;rounded=0;shadow=1;glass=0;sketch=0;strokeColor=#a80036;strokeWidth=2;fillColor=#fefece;swimlaneFillColor=#FEFECE;expand=1;fontSize=12;spacingTop=0;spacingBottom=0;noLabel=0;snapToPoint=0;fixDash=0;autosize=0;container=0;backgroundOutline=0;overflow=visible;strokeOpacity=100;arcSize=15;" parent="1" vertex="1">
                    <mxGeometry x="510" y="120" width="460" height="478" as="geometry"/>
                </mxCell>
                <mxCell id="185" value="−" style="text;strokeColor=none;fillColor=none;align=left;verticalAlign=middle;spacingLeft=2;spacingRight=4;overflow=hidden;rotatable=0;points=[[0,0.5],[1,0.5]];portConstraint=eastwest;container=0;fontColor=#C82930;fontSize=14;spacingTop=0;fontStyle=1;dropTarget=0;" parent="180" vertex="1">
                    <mxGeometry y="32" width="460" height="20" as="geometry"/>
                </mxCell>
                <mxCell id="186" value="shape : Shape" style="text;strokeColor=none;fillColor=none;align=left;verticalAlign=middle;spacingLeft=4;spacingRight=4;overflow=hidden;rotatable=0;points=[[0,0.5],[1,0.5]];portConstraint=eastwest;fontStyle=0;autosize=1;" parent="185" vertex="1">
                    <mxGeometry x="10" width="100" height="20" as="geometry"/>
                </mxCell>
                <mxCell id="202" value="−" style="text;strokeColor=none;fillColor=none;align=left;verticalAlign=middle;spacingLeft=2;spacingRight=4;overflow=hidden;rotatable=0;points=[[0,0.5],[1,0.5]];portConstraint=eastwest;container=0;fontColor=#C82930;fontSize=14;spacingTop=0;fontStyle=1;dropTarget=0;" parent="180" vertex="1">
                    <mxGeometry y="52" width="460" height="20" as="geometry"/>
                </mxCell>
                <mxCell id="203" value="color : Color" style="text;strokeColor=none;fillColor=none;align=left;verticalAlign=middle;spacingLeft=4;spacingRight=4;overflow=hidden;rotatable=0;points=[[0,0.5],[1,0.5]];portConstraint=eastwest;fontStyle=0;autosize=1;" parent="202" vertex="1">
                    <mxGeometry x="10" width="90" height="20" as="geometry"/>
                </mxCell>
                <mxCell id="204" value="−" style="text;strokeColor=none;fillColor=none;align=left;verticalAlign=middle;spacingLeft=2;spacingRight=4;overflow=hidden;rotatable=0;points=[[0,0.5],[1,0.5]];portConstraint=eastwest;container=0;fontColor=#C82930;fontSize=14;spacingTop=0;fontStyle=1;dropTarget=0;" parent="180" vertex="1">
                    <mxGeometry y="72" width="460" height="20" as="geometry"/>
                </mxCell>
                <mxCell id="205" value="direction : Direction" style="text;strokeColor=none;fillColor=none;align=left;verticalAlign=middle;spacingLeft=4;spacingRight=4;overflow=hidden;rotatable=0;points=[[0,0.5],[1,0.5]];portConstraint=eastwest;fontStyle=0;autosize=1;" parent="204" vertex="1">
                    <mxGeometry x="10" width="130" height="20" as="geometry"/>
                </mxCell>
                <mxCell id="206" value="−" style="text;strokeColor=none;fillColor=none;align=left;verticalAlign=middle;spacingLeft=2;spacingRight=4;overflow=hidden;rotatable=0;points=[[0,0.5],[1,0.5]];portConstraint=eastwest;container=0;fontColor=#C82930;fontSize=14;spacingTop=0;fontStyle=1;dropTarget=0;" parent="180" vertex="1">
                    <mxGeometry y="92" width="460" height="20" as="geometry"/>
                </mxCell>
                <mxCell id="207" value="position : Vector2D" style="text;strokeColor=none;fillColor=none;align=left;verticalAlign=middle;spacingLeft=4;spacingRight=4;overflow=hidden;rotatable=0;points=[[0,0.5],[1,0.5]];portConstraint=eastwest;fontStyle=0;autosize=1;" parent="206" vertex="1">
                    <mxGeometry x="10" width="120" height="20" as="geometry"/>
                </mxCell>
                <mxCell id="187" value="" style="line;strokeWidth=2;fillColor=none;align=left;verticalAlign=middle;spacingTop=-1;spacingLeft=3;spacingRight=3;rotatable=0;labelPosition=right;points=[];portConstraint=eastwest;strokeColor=#A80036;" parent="180" vertex="1">
                    <mxGeometry y="112" width="460" height="2" as="geometry"/>
                </mxCell>
                <mxCell id="198" value="+" style="text;strokeColor=none;fillColor=none;align=left;verticalAlign=middle;spacingLeft=2;spacingRight=4;overflow=hidden;rotatable=0;points=[[0,0.5],[1,0.5]];portConstraint=eastwest;container=0;fontColor=#038048;fontStyle=1;fontSize=14;dropTarget=0;" parent="180" vertex="1">
                    <mxGeometry y="114" width="460" height="20" as="geometry"/>
                </mxCell>
                <mxCell id="199" value="Tetromino(shape : Shape)" style="text;strokeColor=none;fillColor=none;align=left;verticalAlign=middle;spacingLeft=4;spacingRight=4;overflow=hidden;rotatable=0;points=[[0,0.5],[1,0.5]];portConstraint=eastwest;fontStyle=0;autosize=1;" parent="198" vertex="1">
                    <mxGeometry x="10" width="160" height="20" as="geometry"/>
                </mxCell>
                <mxCell id="188" value="−" style="text;strokeColor=none;fillColor=none;align=left;verticalAlign=middle;spacingLeft=2;spacingRight=4;overflow=hidden;rotatable=0;points=[[0,0.5],[1,0.5]];portConstraint=eastwest;container=0;fontColor=#C82930;fontSize=14;spacingTop=0;fontStyle=1;dropTarget=0;" parent="180" vertex="1">
                    <mxGeometry y="134" width="460" height="20" as="geometry"/>
                </mxCell>
                <mxCell id="189" value="Tetromino(shape : Shape, color : Color, direction : Direction, position : Vector2D)" style="text;strokeColor=none;fillColor=none;align=left;verticalAlign=middle;spacingLeft=4;spacingRight=4;overflow=hidden;rotatable=0;points=[[0,0.5],[1,0.5]];portConstraint=eastwest;fontStyle=0;autosize=1;" parent="188" vertex="1">
                    <mxGeometry x="10" width="450" height="20" as="geometry"/>
                </mxCell>
                <mxCell id="208" value="+" style="text;strokeColor=none;fillColor=none;align=left;verticalAlign=middle;spacingLeft=2;spacingRight=4;overflow=hidden;rotatable=0;points=[[0,0.5],[1,0.5]];portConstraint=eastwest;container=0;fontColor=#038048;fontStyle=1;fontSize=14;dropTarget=0;" parent="180" vertex="1">
                    <mxGeometry y="154" width="460" height="20" as="geometry"/>
                </mxCell>
                <mxCell id="209" value="copy() : Tetromino" style="text;strokeColor=none;fillColor=none;align=left;verticalAlign=middle;spacingLeft=4;spacingRight=4;overflow=hidden;rotatable=0;points=[[0,0.5],[1,0.5]];portConstraint=eastwest;fontStyle=0;autosize=1;" parent="208" vertex="1">
                    <mxGeometry x="10" width="120" height="20" as="geometry"/>
                </mxCell>
                <mxCell id="212" value="" style="line;strokeWidth=1;fillColor=none;align=left;verticalAlign=middle;spacingTop=-1;spacingLeft=3;spacingRight=3;rotatable=0;labelPosition=right;points=[];portConstraint=eastwest;strokeColor=#A80036;dashed=1;dashPattern=1 2;" parent="180" vertex="1">
                    <mxGeometry y="174" width="460" height="2" as="geometry"/>
                </mxCell>
                <mxCell id="200" value="+" style="text;strokeColor=none;fillColor=none;align=left;verticalAlign=middle;spacingLeft=2;spacingRight=4;overflow=hidden;rotatable=0;points=[[0,0.5],[1,0.5]];portConstraint=eastwest;container=0;fontColor=#038048;fontStyle=1;fontSize=14;dropTarget=0;" parent="180" vertex="1">
                    <mxGeometry y="176" width="460" height="20" as="geometry"/>
                </mxCell>
                <mxCell id="201" value="getShape() : Shape" style="text;strokeColor=none;fillColor=none;align=left;verticalAlign=middle;spacingLeft=4;spacingRight=4;overflow=hidden;rotatable=0;points=[[0,0.5],[1,0.5]];portConstraint=eastwest;fontStyle=0;autosize=1;" parent="200" vertex="1">
                    <mxGeometry x="10" width="130" height="20" as="geometry"/>
                </mxCell>
                <mxCell id="213" value="+" style="text;strokeColor=none;fillColor=none;align=left;verticalAlign=middle;spacingLeft=2;spacingRight=4;overflow=hidden;rotatable=0;points=[[0,0.5],[1,0.5]];portConstraint=eastwest;container=0;fontColor=#038048;fontStyle=1;fontSize=14;dropTarget=0;" parent="180" vertex="1">
                    <mxGeometry y="196" width="460" height="20" as="geometry"/>
                </mxCell>
                <mxCell id="214" value="setShape(shape : Shape) : void" style="text;strokeColor=none;fillColor=none;align=left;verticalAlign=middle;spacingLeft=4;spacingRight=4;overflow=hidden;rotatable=0;points=[[0,0.5],[1,0.5]];portConstraint=eastwest;fontStyle=0;autosize=1;" parent="213" vertex="1">
                    <mxGeometry x="10" width="190" height="20" as="geometry"/>
                </mxCell>
                <mxCell id="215" value="+" style="text;strokeColor=none;fillColor=none;align=left;verticalAlign=middle;spacingLeft=2;spacingRight=4;overflow=hidden;rotatable=0;points=[[0,0.5],[1,0.5]];portConstraint=eastwest;container=0;fontColor=#038048;fontStyle=1;fontSize=14;dropTarget=0;" parent="180" vertex="1">
                    <mxGeometry y="216" width="460" height="20" as="geometry"/>
                </mxCell>
                <mxCell id="216" value="getColor() : Color" style="text;strokeColor=none;fillColor=none;align=left;verticalAlign=middle;spacingLeft=4;spacingRight=4;overflow=hidden;rotatable=0;points=[[0,0.5],[1,0.5]];portConstraint=eastwest;fontStyle=0;autosize=1;" parent="215" vertex="1">
                    <mxGeometry x="10" width="120" height="20" as="geometry"/>
                </mxCell>
                <mxCell id="217" value="+" style="text;strokeColor=none;fillColor=none;align=left;verticalAlign=middle;spacingLeft=2;spacingRight=4;overflow=hidden;rotatable=0;points=[[0,0.5],[1,0.5]];portConstraint=eastwest;container=0;fontColor=#038048;fontStyle=1;fontSize=14;dropTarget=0;" parent="180" vertex="1">
                    <mxGeometry y="236" width="460" height="20" as="geometry"/>
                </mxCell>
                <mxCell id="218" value="setColor( color : Color) : void" style="text;strokeColor=none;fillColor=none;align=left;verticalAlign=middle;spacingLeft=4;spacingRight=4;overflow=hidden;rotatable=0;points=[[0,0.5],[1,0.5]];portConstraint=eastwest;fontStyle=0;autosize=1;" parent="217" vertex="1">
                    <mxGeometry x="10" width="180" height="20" as="geometry"/>
                </mxCell>
                <mxCell id="223" value="+" style="text;strokeColor=none;fillColor=none;align=left;verticalAlign=middle;spacingLeft=2;spacingRight=4;overflow=hidden;rotatable=0;points=[[0,0.5],[1,0.5]];portConstraint=eastwest;container=0;fontColor=#038048;fontStyle=1;fontSize=14;dropTarget=0;" parent="180" vertex="1">
                    <mxGeometry y="256" width="460" height="20" as="geometry"/>
                </mxCell>
                <mxCell id="224" value="getDirection() : Direction" style="text;strokeColor=none;fillColor=none;align=left;verticalAlign=middle;spacingLeft=4;spacingRight=4;overflow=hidden;rotatable=0;points=[[0,0.5],[1,0.5]];portConstraint=eastwest;fontStyle=0;autosize=1;" parent="223" vertex="1">
                    <mxGeometry x="10" width="150" height="20" as="geometry"/>
                </mxCell>
                <mxCell id="225" value="+" style="text;strokeColor=none;fillColor=none;align=left;verticalAlign=middle;spacingLeft=2;spacingRight=4;overflow=hidden;rotatable=0;points=[[0,0.5],[1,0.5]];portConstraint=eastwest;container=0;fontColor=#038048;fontStyle=1;fontSize=14;dropTarget=0;" parent="180" vertex="1">
                    <mxGeometry y="276" width="460" height="20" as="geometry"/>
                </mxCell>
                <mxCell id="226" value="setDirection(direction : Direction) : void" style="text;strokeColor=none;fillColor=none;align=left;verticalAlign=middle;spacingLeft=4;spacingRight=4;overflow=hidden;rotatable=0;points=[[0,0.5],[1,0.5]];portConstraint=eastwest;fontStyle=0;autosize=1;" parent="225" vertex="1">
                    <mxGeometry x="10" width="230" height="20" as="geometry"/>
                </mxCell>
                <mxCell id="227" value="+" style="text;strokeColor=none;fillColor=none;align=left;verticalAlign=middle;spacingLeft=2;spacingRight=4;overflow=hidden;rotatable=0;points=[[0,0.5],[1,0.5]];portConstraint=eastwest;container=0;fontColor=#038048;fontStyle=1;fontSize=14;dropTarget=0;" parent="180" vertex="1">
                    <mxGeometry y="296" width="460" height="20" as="geometry"/>
                </mxCell>
                <mxCell id="228" value="getPosition() : Vector2D" style="text;strokeColor=none;fillColor=none;align=left;verticalAlign=middle;spacingLeft=4;spacingRight=4;overflow=hidden;rotatable=0;points=[[0,0.5],[1,0.5]];portConstraint=eastwest;fontStyle=0;autosize=1;" parent="227" vertex="1">
                    <mxGeometry x="10" width="150" height="20" as="geometry"/>
                </mxCell>
                <mxCell id="229" value="+" style="text;strokeColor=none;fillColor=none;align=left;verticalAlign=middle;spacingLeft=2;spacingRight=4;overflow=hidden;rotatable=0;points=[[0,0.5],[1,0.5]];portConstraint=eastwest;container=0;fontColor=#038048;fontStyle=1;fontSize=14;dropTarget=0;" parent="180" vertex="1">
                    <mxGeometry y="316" width="460" height="20" as="geometry"/>
                </mxCell>
                <mxCell id="230" value="setPosition(position : Vector2D) : void" style="text;strokeColor=none;fillColor=none;align=left;verticalAlign=middle;spacingLeft=4;spacingRight=4;overflow=hidden;rotatable=0;points=[[0,0.5],[1,0.5]];portConstraint=eastwest;fontStyle=0;autosize=1;" parent="229" vertex="1">
                    <mxGeometry x="10" width="220" height="20" as="geometry"/>
                </mxCell>
                <mxCell id="231" value="+" style="text;strokeColor=none;fillColor=none;align=left;verticalAlign=middle;spacingLeft=2;spacingRight=4;overflow=hidden;rotatable=0;points=[[0,0.5],[1,0.5]];portConstraint=eastwest;container=0;fontColor=#038048;fontStyle=1;fontSize=14;dropTarget=0;" parent="180" vertex="1">
                    <mxGeometry y="336" width="460" height="20" as="geometry"/>
                </mxCell>
                <mxCell id="232" value="setDefault() : void" style="text;strokeColor=none;fillColor=none;align=left;verticalAlign=middle;spacingLeft=4;spacingRight=4;overflow=hidden;rotatable=0;points=[[0,0.5],[1,0.5]];portConstraint=eastwest;fontStyle=0;autosize=1;" parent="231" vertex="1">
                    <mxGeometry x="10" width="120" height="20" as="geometry"/>
                </mxCell>
                <mxCell id="233" value="+" style="text;strokeColor=none;fillColor=none;align=left;verticalAlign=middle;spacingLeft=2;spacingRight=4;overflow=hidden;rotatable=0;points=[[0,0.5],[1,0.5]];portConstraint=eastwest;container=0;fontColor=#038048;fontStyle=1;fontSize=14;dropTarget=0;" parent="180" vertex="1">
                    <mxGeometry y="356" width="460" height="20" as="geometry"/>
                </mxCell>
                <mxCell id="234" value="setDefaultColor() : void" style="text;strokeColor=none;fillColor=none;align=left;verticalAlign=middle;spacingLeft=4;spacingRight=4;overflow=hidden;rotatable=0;points=[[0,0.5],[1,0.5]];portConstraint=eastwest;fontStyle=0;autosize=1;" parent="233" vertex="1">
                    <mxGeometry x="10" width="150" height="20" as="geometry"/>
                </mxCell>
                <mxCell id="235" value="+" style="text;strokeColor=none;fillColor=none;align=left;verticalAlign=middle;spacingLeft=2;spacingRight=4;overflow=hidden;rotatable=0;points=[[0,0.5],[1,0.5]];portConstraint=eastwest;container=0;fontColor=#038048;fontStyle=1;fontSize=14;dropTarget=0;" parent="180" vertex="1">
                    <mxGeometry y="376" width="460" height="20" as="geometry"/>
                </mxCell>
                <mxCell id="236" value="getTopLeftCornerPosition() : Vector2D" style="text;strokeColor=none;fillColor=none;align=left;verticalAlign=middle;spacingLeft=4;spacingRight=4;overflow=hidden;rotatable=0;points=[[0,0.5],[1,0.5]];portConstraint=eastwest;fontStyle=0;autosize=1;" parent="235" vertex="1">
                    <mxGeometry x="10" width="230" height="20" as="geometry"/>
                </mxCell>
                <mxCell id="237" value="+" style="text;strokeColor=none;fillColor=none;align=left;verticalAlign=middle;spacingLeft=2;spacingRight=4;overflow=hidden;rotatable=0;points=[[0,0.5],[1,0.5]];portConstraint=eastwest;container=0;fontColor=#038048;fontStyle=1;fontSize=14;dropTarget=0;" parent="180" vertex="1">
                    <mxGeometry y="396" width="460" height="20" as="geometry"/>
                </mxCell>
                <mxCell id="238" value="getColorForShape(shape : Shape) : Color" style="text;strokeColor=none;fillColor=none;align=left;verticalAlign=middle;spacingLeft=4;spacingRight=4;overflow=hidden;rotatable=0;points=[[0,0.5],[1,0.5]];portConstraint=eastwest;fontStyle=0;autosize=1;" parent="237" vertex="1">
                    <mxGeometry x="10" width="250" height="20" as="geometry"/>
                </mxCell>
                <mxCell id="239" value="+" style="text;strokeColor=none;fillColor=none;align=left;verticalAlign=middle;spacingLeft=2;spacingRight=4;overflow=hidden;rotatable=0;points=[[0,0.5],[1,0.5]];portConstraint=eastwest;container=0;fontColor=#038048;fontStyle=1;fontSize=14;dropTarget=0;" parent="180" vertex="1">
                    <mxGeometry y="416" width="460" height="20" as="geometry"/>
                </mxCell>
                <mxCell id="240" value="getShapeForCurrentRotation() : List&lt;List&lt;Integer&gt;&gt;" style="text;strokeColor=none;fillColor=none;align=left;verticalAlign=middle;spacingLeft=4;spacingRight=4;overflow=hidden;rotatable=0;points=[[0,0.5],[1,0.5]];portConstraint=eastwest;fontStyle=0;autosize=1;" parent="239" vertex="1">
                    <mxGeometry x="10" width="300" height="20" as="geometry"/>
                </mxCell>
                <mxCell id="197" value="" style="line;strokeWidth=1;fillColor=none;align=left;verticalAlign=middle;spacingTop=-1;spacingLeft=3;spacingRight=3;rotatable=0;labelPosition=right;points=[];portConstraint=eastwest;strokeColor=#A80036;dashed=1;dashPattern=1 2;" parent="180" vertex="1">
                    <mxGeometry y="436" width="460" height="2" as="geometry"/>
                </mxCell>
                <mxCell id="219" value="+" style="text;strokeColor=none;fillColor=none;align=left;verticalAlign=middle;spacingLeft=2;spacingRight=4;overflow=hidden;rotatable=0;points=[[0,0.5],[1,0.5]];portConstraint=eastwest;container=0;fontColor=#038048;fontStyle=1;fontSize=14;dropTarget=0;" parent="180" vertex="1">
                    <mxGeometry y="438" width="460" height="20" as="geometry"/>
                </mxCell>
                <mxCell id="220" value="translate(direction : Direction) : void" style="text;strokeColor=none;fillColor=none;align=left;verticalAlign=middle;spacingLeft=4;spacingRight=4;overflow=hidden;rotatable=0;points=[[0,0.5],[1,0.5]];portConstraint=eastwest;fontStyle=0;autosize=1;" parent="219" vertex="1">
                    <mxGeometry x="10" width="210" height="20" as="geometry"/>
                </mxCell>
                <mxCell id="221" value="+" style="text;strokeColor=none;fillColor=none;align=left;verticalAlign=middle;spacingLeft=2;spacingRight=4;overflow=hidden;rotatable=0;points=[[0,0.5],[1,0.5]];portConstraint=eastwest;container=0;fontColor=#038048;fontStyle=1;fontSize=14;dropTarget=0;" parent="180" vertex="1">
                    <mxGeometry y="458" width="460" height="20" as="geometry"/>
                </mxCell>
                <mxCell id="222" value="rotate(rotation : Rotation) : void" style="text;strokeColor=none;fillColor=none;align=left;verticalAlign=middle;spacingLeft=4;spacingRight=4;overflow=hidden;rotatable=0;points=[[0,0.5],[1,0.5]];portConstraint=eastwest;fontStyle=0;autosize=1;" parent="221" vertex="1">
                    <mxGeometry x="10" width="190" height="20" as="geometry"/>
                </mxCell>
                <mxCell id="241" value="&lt;&lt;Enum&gt;&gt;&#10;Color" style="swimlane;fontStyle=3;align=center;verticalAlign=middle;childLayout=stackLayout;horizontal=1;startSize=44;horizontalStack=0;resizeParent=1;resizeParentMax=0;resizeLast=0;collapsible=0;marginBottom=0;rounded=0;shadow=1;glass=0;sketch=0;strokeWidth=2;fillColor=#fefece;swimlaneFillColor=#FEFECE;expand=1;fontSize=12;spacingTop=0;spacingBottom=0;noLabel=0;snapToPoint=0;fixDash=0;autosize=0;container=0;backgroundOutline=0;overflow=visible;strokeOpacity=100;arcSize=15;strokeColor=#A80036;" parent="1" vertex="1">
                    <mxGeometry x="270" y="120" width="120" height="204" as="geometry"/>
                </mxCell>
                <mxCell id="242" value="" style="text;strokeColor=none;fillColor=none;align=left;verticalAlign=middle;spacingLeft=2;spacingRight=4;overflow=hidden;rotatable=0;points=[[0,0.5],[1,0.5]];portConstraint=eastwest;container=0;fontColor=#038048;fontStyle=1;fontSize=14;dropTarget=0;" parent="241" vertex="1">
                    <mxGeometry y="44" width="120" height="20" as="geometry"/>
                </mxCell>
                <mxCell id="243" value="CYAN" style="text;strokeColor=none;fillColor=none;align=left;verticalAlign=middle;spacingLeft=4;spacingRight=4;overflow=hidden;rotatable=0;points=[[0,0.5],[1,0.5]];portConstraint=eastwest;fontStyle=1;autosize=1;" parent="242" vertex="1">
                    <mxGeometry x="10" width="60" height="20" as="geometry"/>
                </mxCell>
                <mxCell id="263" value="" style="text;strokeColor=none;fillColor=none;align=left;verticalAlign=middle;spacingLeft=2;spacingRight=4;overflow=hidden;rotatable=0;points=[[0,0.5],[1,0.5]];portConstraint=eastwest;container=0;fontColor=#038048;fontStyle=1;fontSize=14;dropTarget=0;" parent="241" vertex="1">
                    <mxGeometry y="64" width="120" height="20" as="geometry"/>
                </mxCell>
                <mxCell id="264" value="BLUE" style="text;strokeColor=none;fillColor=none;align=left;verticalAlign=middle;spacingLeft=4;spacingRight=4;overflow=hidden;rotatable=0;points=[[0,0.5],[1,0.5]];portConstraint=eastwest;fontStyle=1;autosize=1;" parent="263" vertex="1">
                    <mxGeometry x="10" width="60" height="20" as="geometry"/>
                </mxCell>
                <mxCell id="265" value="" style="text;strokeColor=none;fillColor=none;align=left;verticalAlign=middle;spacingLeft=2;spacingRight=4;overflow=hidden;rotatable=0;points=[[0,0.5],[1,0.5]];portConstraint=eastwest;container=0;fontColor=#038048;fontStyle=1;fontSize=14;dropTarget=0;" parent="241" vertex="1">
                    <mxGeometry y="84" width="120" height="20" as="geometry"/>
                </mxCell>
                <mxCell id="266" value="ORANGE" style="text;strokeColor=none;fillColor=none;align=left;verticalAlign=middle;spacingLeft=4;spacingRight=4;overflow=hidden;rotatable=0;points=[[0,0.5],[1,0.5]];portConstraint=eastwest;fontStyle=1;autosize=1;" parent="265" vertex="1">
                    <mxGeometry x="10" width="80" height="20" as="geometry"/>
                </mxCell>
                <mxCell id="267" value="" style="text;strokeColor=none;fillColor=none;align=left;verticalAlign=middle;spacingLeft=2;spacingRight=4;overflow=hidden;rotatable=0;points=[[0,0.5],[1,0.5]];portConstraint=eastwest;container=0;fontColor=#038048;fontStyle=1;fontSize=14;dropTarget=0;" parent="241" vertex="1">
                    <mxGeometry y="104" width="120" height="20" as="geometry"/>
                </mxCell>
                <mxCell id="268" value="YELLOW" style="text;strokeColor=none;fillColor=none;align=left;verticalAlign=middle;spacingLeft=4;spacingRight=4;overflow=hidden;rotatable=0;points=[[0,0.5],[1,0.5]];portConstraint=eastwest;fontStyle=1;autosize=1;" parent="267" vertex="1">
                    <mxGeometry x="10" width="70" height="20" as="geometry"/>
                </mxCell>
                <mxCell id="269" value="" style="text;strokeColor=none;fillColor=none;align=left;verticalAlign=middle;spacingLeft=2;spacingRight=4;overflow=hidden;rotatable=0;points=[[0,0.5],[1,0.5]];portConstraint=eastwest;container=0;fontColor=#038048;fontStyle=1;fontSize=14;dropTarget=0;" parent="241" vertex="1">
                    <mxGeometry y="124" width="120" height="20" as="geometry"/>
                </mxCell>
                <mxCell id="270" value="GREEN" style="text;strokeColor=none;fillColor=none;align=left;verticalAlign=middle;spacingLeft=4;spacingRight=4;overflow=hidden;rotatable=0;points=[[0,0.5],[1,0.5]];portConstraint=eastwest;fontStyle=1;autosize=1;" parent="269" vertex="1">
                    <mxGeometry x="10" width="70" height="20" as="geometry"/>
                </mxCell>
                <mxCell id="271" value="" style="text;strokeColor=none;fillColor=none;align=left;verticalAlign=middle;spacingLeft=2;spacingRight=4;overflow=hidden;rotatable=0;points=[[0,0.5],[1,0.5]];portConstraint=eastwest;container=0;fontColor=#038048;fontStyle=1;fontSize=14;dropTarget=0;" parent="241" vertex="1">
                    <mxGeometry y="144" width="120" height="20" as="geometry"/>
                </mxCell>
                <mxCell id="272" value="PURPLE" style="text;strokeColor=none;fillColor=none;align=left;verticalAlign=middle;spacingLeft=4;spacingRight=4;overflow=hidden;rotatable=0;points=[[0,0.5],[1,0.5]];portConstraint=eastwest;fontStyle=1;autosize=1;" parent="271" vertex="1">
                    <mxGeometry x="10" width="70" height="20" as="geometry"/>
                </mxCell>
                <mxCell id="273" value="" style="text;strokeColor=none;fillColor=none;align=left;verticalAlign=middle;spacingLeft=2;spacingRight=4;overflow=hidden;rotatable=0;points=[[0,0.5],[1,0.5]];portConstraint=eastwest;container=0;fontColor=#038048;fontStyle=1;fontSize=14;dropTarget=0;" parent="241" vertex="1">
                    <mxGeometry y="164" width="120" height="20" as="geometry"/>
                </mxCell>
                <mxCell id="274" value="RED" style="text;strokeColor=none;fillColor=none;align=left;verticalAlign=middle;spacingLeft=4;spacingRight=4;overflow=hidden;rotatable=0;points=[[0,0.5],[1,0.5]];portConstraint=eastwest;fontStyle=1;autosize=1;" parent="273" vertex="1">
                    <mxGeometry x="10" width="50" height="20" as="geometry"/>
                </mxCell>
                <mxCell id="275" value="" style="text;strokeColor=none;fillColor=none;align=left;verticalAlign=middle;spacingLeft=2;spacingRight=4;overflow=hidden;rotatable=0;points=[[0,0.5],[1,0.5]];portConstraint=eastwest;container=0;fontColor=#038048;fontStyle=1;fontSize=14;dropTarget=0;" parent="241" vertex="1">
                    <mxGeometry y="184" width="120" height="20" as="geometry"/>
                </mxCell>
                <mxCell id="276" value="SHADOW" style="text;strokeColor=none;fillColor=none;align=left;verticalAlign=middle;spacingLeft=4;spacingRight=4;overflow=hidden;rotatable=0;points=[[0,0.5],[1,0.5]];portConstraint=eastwest;fontStyle=1;autosize=1;" parent="275" vertex="1">
                    <mxGeometry x="10" width="80" height="20" as="geometry"/>
                </mxCell>
                <mxCell id="277" value="&lt;&lt;Enum&gt;&gt;&#10;Rotation" style="swimlane;fontStyle=3;align=center;verticalAlign=middle;childLayout=stackLayout;horizontal=1;startSize=44;horizontalStack=0;resizeParent=1;resizeParentMax=0;resizeLast=0;collapsible=0;marginBottom=0;rounded=0;shadow=1;glass=0;sketch=0;strokeColor=#a80036;strokeWidth=2;fillColor=#fefece;swimlaneFillColor=#FEFECE;expand=1;fontSize=12;spacingTop=0;spacingBottom=0;noLabel=0;snapToPoint=0;fixDash=0;autosize=0;container=0;backgroundOutline=0;overflow=visible;strokeOpacity=100;arcSize=15;" parent="1" vertex="1">
                    <mxGeometry x="250" y="514" width="160" height="84" as="geometry"/>
                </mxCell>
                <mxCell id="278" value="" style="text;strokeColor=none;fillColor=none;align=left;verticalAlign=middle;spacingLeft=2;spacingRight=4;overflow=hidden;rotatable=0;points=[[0,0.5],[1,0.5]];portConstraint=eastwest;container=0;fontColor=#038048;fontStyle=1;fontSize=14;dropTarget=0;" parent="277" vertex="1">
                    <mxGeometry y="44" width="160" height="20" as="geometry"/>
                </mxCell>
                <mxCell id="279" value="CLOCKWISE" style="text;strokeColor=none;fillColor=none;align=left;verticalAlign=middle;spacingLeft=4;spacingRight=4;overflow=hidden;rotatable=0;points=[[0,0.5],[1,0.5]];portConstraint=eastwest;fontStyle=1;autosize=1;" parent="278" vertex="1">
                    <mxGeometry x="10" width="100" height="20" as="geometry"/>
                </mxCell>
                <mxCell id="286" value="" style="text;strokeColor=none;fillColor=none;align=left;verticalAlign=middle;spacingLeft=2;spacingRight=4;overflow=hidden;rotatable=0;points=[[0,0.5],[1,0.5]];portConstraint=eastwest;container=0;fontColor=#038048;fontStyle=1;fontSize=14;dropTarget=0;" parent="277" vertex="1">
                    <mxGeometry y="64" width="160" height="20" as="geometry"/>
                </mxCell>
                <mxCell id="287" value="COUNTERCLOCKWISE" style="text;strokeColor=none;fillColor=none;align=left;verticalAlign=middle;spacingLeft=4;spacingRight=4;overflow=hidden;rotatable=0;points=[[0,0.5],[1,0.5]];portConstraint=eastwest;fontStyle=1;autosize=1;" parent="286" vertex="1">
                    <mxGeometry x="10" width="160" height="20" as="geometry"/>
                </mxCell>
                <mxCell id="303" style="edgeStyle=orthogonalEdgeStyle;rounded=0;orthogonalLoop=1;jettySize=auto;html=1;entryX=0.5;entryY=1;entryDx=0;entryDy=0;startSize=44;endArrow=circlePlus;endFill=0;endSize=10;strokeColor=#A80036;strokeWidth=2;" parent="1" target="50" edge="1">
                    <mxGeometry relative="1" as="geometry">
                        <mxPoint x="330" y="1130" as="sourcePoint"/>
                    </mxGeometry>
                </mxCell>
                <mxCell id="311" style="edgeStyle=orthogonalEdgeStyle;rounded=0;orthogonalLoop=1;jettySize=auto;html=1;startSize=44;endArrow=diamondThin;endFill=0;endSize=20;strokeColor=#A80036;strokeWidth=2;" parent="1" source="267" edge="1">
                    <mxGeometry relative="1" as="geometry">
                        <mxPoint x="510" y="234" as="targetPoint"/>
                    </mxGeometry>
                </mxCell>
                <mxCell id="315" style="edgeStyle=orthogonalEdgeStyle;rounded=0;orthogonalLoop=1;jettySize=auto;html=1;dashed=1;endArrow=open;endFill=0;strokeColor=#A80036;strokeWidth=2;" parent="1" source="219" edge="1">
                    <mxGeometry relative="1" as="geometry">
                        <mxPoint x="410" y="560" as="targetPoint"/>
                        <Array as="points">
                            <mxPoint x="410" y="560"/>
                        </Array>
                    </mxGeometry>
                </mxCell>
                <mxCell id="316" value="&lt;b&gt;CLASS DIAGRAM only Tetromino&lt;/b&gt;" style="shape=umlFrame;whiteSpace=wrap;html=1;strokeWidth=2;strokeColor=#A80036;fillColor=#FEFECE;width=210;height=30;" vertex="1" parent="1">
                    <mxGeometry x="60" y="80" width="1100" height="1160" as="geometry"/>
                </mxCell>
            </root>
        </mxGraphModel>
    </diagram>
</mxfile>